<svg width="16" height="10" viewBox="0 0 16 10" fill="none" xmlns="http://www.w3.org/2000/svg">
<g clip-path="url(#clip0_14_24)">
<path d="M13.2815 0.32863L6.31325 7.2913L2.7585 3.73656C2.5484 3.52646 2.26344 3.40843 1.96631 3.40843C1.66917 3.40843 1.38422 3.52646 1.17411 3.73656C0.964009 3.94666 0.845966 4.23162 0.845966 4.52875C0.845966 4.82589 0.964009 5.11084 1.17411 5.32095L5.52035 9.6672C5.62427 9.77142 5.74775 9.85411 5.88369 9.91053C6.01963 9.96696 6.16537 9.99599 6.31255 9.99599C6.45974 9.99599 6.60548 9.96696 6.74142 9.91053C6.87736 9.85411 7.00082 9.77142 7.10475 9.6672L14.8645 1.90745C15.0746 1.69734 15.1926 1.41236 15.1926 1.11523C15.1926 0.818101 15.0746 0.533143 14.8645 0.323039C14.6544 0.112935 14.3694 -0.00509644 14.0723 -0.00509644C13.7752 -0.00509644 13.4902 0.112935 13.2801 0.323039L13.2815 0.32863Z" fill="#2BC9AF"/>
</g>
<defs>
<clipPath id="clip0_14_24">
<rect width="15" height="10" fill="white" transform="translate(0.520004)"/>
</clipPath>
</defs>
</svg>
